<?xml version="1.0" encoding="UTF-8"?>
<svg id="Layer_1" xmlns="http://www.w3.org/2000/svg" version="1.1" viewBox="0 0 975.67 256">
  <!-- Generator: Adobe Illustrator 29.0.1, SVG Export Plug-In . SVG Version: 2.1.0 Build 192)  -->
  <defs>
    <style>
      .st0 {
        fill: #fff;
      }

      .st1 {
        fill: #66a2ff;
      }

      .st2 {
        fill: #b2d1ff;
      }

      .st3 {
        fill: none;
        stroke: #fff;
        stroke-linecap: round;
        stroke-miterlimit: 10;
        stroke-width: 12px;
      }
    </style>
  </defs>
  <rect class="st1" y="10" width="975.67" height="246" rx="60" ry="60"/>
  <rect class="st2" y="10" width="975.67" height="239.92" rx="60" ry="60"/>
  <g>
    <path class="st0" d="M193.92,181.43v-95.2h13.33v40.12h51.27v-40.12h13.33v95.2h-13.33v-42.84h-51.27v42.84h-13.33Z"/>
    <path class="st0" d="M323.67,183.06c-6.8,0-12.78-1.52-17.95-4.56-5.17-3.04-9.23-7.23-12.17-12.58-2.95-5.35-4.42-11.51-4.42-18.5s1.45-13.14,4.35-18.5c2.9-5.35,6.94-9.54,12.1-12.58,5.17-3.04,11.06-4.56,17.68-4.56s12.78,1.52,17.95,4.56c5.17,3.04,9.2,7.23,12.1,12.58,2.9,5.35,4.35,11.52,4.35,18.5s-1.45,13.15-4.35,18.5c-2.9,5.35-6.92,9.54-12.04,12.58-5.12,3.04-11,4.56-17.61,4.56ZM323.67,171.23c4.08,0,7.68-1.02,10.81-3.06s5.6-4.83,7.41-8.36c1.81-3.54,2.72-7.66,2.72-12.38s-.91-8.84-2.72-12.38c-1.81-3.54-4.33-6.32-7.55-8.36-3.22-2.04-6.87-3.06-10.95-3.06s-7.84,1.02-11.02,3.06c-3.17,2.04-5.67,4.85-7.48,8.43-1.82,3.58-2.72,7.68-2.72,12.31s.91,8.84,2.72,12.38c1.81,3.54,4.35,6.32,7.62,8.36,3.26,2.04,6.98,3.06,11.15,3.06Z"/>
    <path class="st0" d="M385.14,181.43l-23.12-68h13.06l16.73,50.32,16.86-50.32h12.78l16.59,49.78,16.86-49.78h12.92l-23.12,68h-12.78l-16.86-51.14-17,51.14h-12.92Z"/>
    <path class="st0" d="M537.59,183.06c-6.8,0-12.06-1.74-15.78-5.24-3.72-3.49-5.58-8.5-5.58-15.03v-38.22h-11.56v-11.15h11.56v-21.22h12.92v21.22h19.31v11.15h-19.31v36.31c0,3.36.84,5.92,2.52,7.68,1.68,1.77,4.1,2.65,7.28,2.65.91,0,1.9-.18,2.99-.54,1.09-.36,2.4-1.09,3.94-2.18l4.9,10.06c-2.36,1.54-4.6,2.67-6.73,3.4-2.13.72-4.28,1.09-6.46,1.09Z"/>
    <path class="st0" d="M593.76,183.06c-6.8,0-12.78-1.52-17.95-4.56-5.17-3.04-9.23-7.23-12.17-12.58-2.95-5.35-4.42-11.51-4.42-18.5s1.45-13.14,4.35-18.5c2.9-5.35,6.94-9.54,12.1-12.58,5.17-3.04,11.06-4.56,17.68-4.56s12.78,1.52,17.95,4.56c5.17,3.04,9.2,7.23,12.1,12.58,2.9,5.35,4.35,11.52,4.35,18.5s-1.45,13.15-4.35,18.5c-2.9,5.35-6.92,9.54-12.04,12.58-5.12,3.04-11,4.56-17.61,4.56ZM593.76,171.23c4.08,0,7.68-1.02,10.81-3.06s5.6-4.83,7.41-8.36c1.81-3.54,2.72-7.66,2.72-12.38s-.91-8.84-2.72-12.38c-1.81-3.54-4.33-6.32-7.55-8.36-3.22-2.04-6.87-3.06-10.95-3.06s-7.84,1.02-11.02,3.06c-3.17,2.04-5.67,4.85-7.48,8.43-1.82,3.58-2.72,7.68-2.72,12.31s.91,8.84,2.72,12.38c1.81,3.54,4.35,6.32,7.62,8.36,3.26,2.04,6.98,3.06,11.15,3.06Z"/>
    <path class="st0" d="M678.21,181.43v-95.2h32.1c6.34,0,11.94,1.29,16.8,3.88,4.85,2.58,8.66,6.19,11.42,10.81,2.76,4.62,4.15,9.93,4.15,15.91s-1.27,11.15-3.81,15.78c-2.54,4.62-6.05,8.25-10.54,10.88-4.49,2.63-9.63,3.94-15.44,3.94h-21.35v34h-13.33ZM691.54,135.05h21.22c4.8,0,8.75-1.7,11.83-5.1,3.08-3.4,4.62-7.77,4.62-13.12s-1.79-9.86-5.37-13.26c-3.58-3.4-8.14-5.1-13.67-5.1h-18.63v36.58Z"/>
    <path class="st0" d="M754.78,181.43v-95.2h12.92v95.2h-12.92Z"/>
    <path class="st0" d="M807.41,183.06c-8.07,0-14.35-1.84-18.84-5.51-4.49-3.67-6.73-8.77-6.73-15.3,0-6.98,2.33-12.31,7-15.98,4.67-3.67,11.17-5.51,19.52-5.51h18.22c-.54-5.8-2.06-10.18-4.56-13.12-2.5-2.95-6.24-4.42-11.22-4.42-3.54,0-6.6.73-9.18,2.18-2.58,1.45-4.74,3.72-6.46,6.8l-11.42-4.35c1.63-3.08,3.67-5.82,6.12-8.23,2.45-2.4,5.39-4.31,8.84-5.71,3.44-1.4,7.48-2.11,12.1-2.11,6.44,0,11.79,1.27,16.05,3.81,4.26,2.54,7.46,6.21,9.59,11.02,2.13,4.81,3.15,10.74,3.06,17.82l-.14,36.99h-11.97l-.41-8.7c-2,3.26-4.62,5.8-7.89,7.62-3.26,1.81-7.16,2.72-11.7,2.72ZM808.5,172.04c3.72,0,6.94-.79,9.66-2.38,2.72-1.58,4.85-3.81,6.39-6.66,1.54-2.86,2.31-6.14,2.31-9.86v-2.18h-14.96c-6.26,0-10.65.98-13.19,2.92-2.54,1.95-3.81,4.65-3.81,8.09,0,3.17,1.2,5.64,3.6,7.41,2.4,1.77,5.73,2.65,10,2.65Z"/>
    <path class="st0" d="M862.9,210.26c-2,0-4.2-.36-6.6-1.09-2.4-.73-4.88-1.68-7.41-2.86l4.76-10.61c1.99.91,3.74,1.58,5.24,2.04,1.5.45,2.7.68,3.6.68,2.26,0,4.19-.64,5.78-1.9,1.59-1.27,2.88-3.04,3.88-5.3l4.22-10.2-29.65-67.59h13.74l22.03,52.77,21.76-52.77h13.87l-32.23,76.43c-1.72,4.17-3.54,7.8-5.44,10.88-1.9,3.08-4.24,5.44-7,7.07-2.77,1.63-6.28,2.45-10.54,2.45Z"/>
  </g>
  <circle class="st3" cx="112.35" cy="134.06" r="47.37"/>
  <path class="st0" d="M105.48,148.4l-.47-16.37,6.88-.46c3.22-.19,5.87-1.12,7.95-2.79,2.08-1.67,3.12-4.12,3.12-7.35,0-2.73-.96-4.99-2.88-6.79-1.92-1.8-4.43-2.7-7.53-2.7-2.17,0-4.05.54-5.63,1.63-1.58,1.09-2.68,2.43-3.3,4.05l-11.16-3.16c1.24-4.09,3.61-7.38,7.11-9.86,3.5-2.48,7.83-3.72,12.97-3.72,4.34,0,8.18.88,11.53,2.65,3.35,1.77,5.97,4.19,7.86,7.25,1.89,3.07,2.84,6.62,2.84,10.65,0,3.29-.71,6.23-2.14,8.84-1.43,2.6-3.46,4.71-6.09,6.32-2.64,1.61-5.69,2.64-9.16,3.07l-.19,8.74h-11.72ZM111.34,168.49c-2.05,0-3.8-.73-5.25-2.19-1.46-1.46-2.19-3.24-2.19-5.35s.73-3.8,2.19-5.25c1.46-1.46,3.21-2.19,5.25-2.19s3.8.73,5.25,2.19c1.46,1.46,2.19,3.21,2.19,5.25s-.73,3.89-2.19,5.35c-1.46,1.46-3.21,2.19-5.25,2.19Z"/>
</svg>